{"title":"Game Time[2011][ENG][DvDRip]Xvid-{RedDragon}","uid":6918906,"size":733291259,"categoryP":"video","categoryS":"movies","magnet":"?xt=urn:btih:6ad9b22679e8b7e6484e56fc81d803a5ac696cad&amp;dn=Game+Time%5B2011%5D%5BENG%5D%5BDvDRip%5DXvid-%7BRedDragon%7D&amp;tr=udp%3A%2F%2Ftracker.openbittorrent.com%3A80&amp;tr=udp%3A%2F%2Fopen.demonii.com%3A1337&amp;tr=udp%3A%2F%2Ftracker.coppersurfer.tk%3A6969&amp;tr=udp%3A%2F%2Fexodus.desync.com%3A6969","seeders":0,"leechers":1,"uploader":"RedDr4gon","files":6,"time":1325145011,"description":"General.\n\nComplete name                    : Game.Time.2011.[ENG].[DvDRip].Xvid-{RedDragon}.avi\nFormat                           : AVI\nFormat/Info                      : Audio Video Interleave\nFile size                        : 699 MiB\nDuration                         : 1h 40mn\nOverall bit rate                 : 970 Kbps\n\nVideo.\n\nID                               : 0\nFormat                           : MPEG-4 Visual\nFormat profile                   : Advanced Simple@L5\nFormat settings, BVOP            : Yes\nFormat settings, QPel            : No\nFormat settings, GMC             : No warppoints\nFormat settings, Matrix          : Default (H.263)\nCodec ID                         : XVID\nCodec ID/Hint                    : XviD\nDuration                         : 1h 40mn\nBit rate                         : 846 Kbps\nWidth                            : 640 pixels\nHeight                           : 352 pixels\nDisplay aspect ratio             : 16:9\nFrame rate                       : 23.976 fps\nColor space                      : YUV\nChroma subsampling               : 4:2:0\nBit depth                        : 8 bits\nScan type                        : Progressive\nBits/(Pixel*Frame)               : 0.157\nStream size                      : 610 MiB (87%)\nWriting library                  : XviD 1.2.1 (UTC 2008-12-04)\n\nAudio.\n\nID                               : 1\nFormat                           : MPEG Audio\nFormat version                   : Version 1\nFormat profile                   : Layer 3\nMode                             : Joint stereo\nMode extension                   : MS Stereo\nCodec ID                         : 55\nCodec ID/Hint                    : MP3\nDuration                         : 1h 40mn\nBit rate mode                    : Variable\nBit rate                         : 111 Kbps\nNominal bit rate                 : 128 Kbps\nChannel(s)                       : 2 channels\nSampling rate                    : 48.0 KHz\nStream size                      : 80.3 MiB (11%)\nAlignment                        : Aligned on interleaves\nInterleave, duration             : 24 ms (0.58 video frame)\nInterleave, preload duration     : 75 ms\nTitle                            : merged T80 3_2ch 448Kbps DELAY 0ms_audio\nWriting library                  : LAME3.98r\nEncoding settings                : -m j -V 4 -q 2 -lowpass 17 --abr 128\n \n \nFORUMS. \n \n   Please Join my Forums :\n\n\n  &lt;a href=&quot; http://discussionforums.freeforhosting.com/&quot; rel=&quot;nofollow&quot; target=&quot;_NEW&quot;&gt; http://discussionforums.freeforhosting.com/&lt;/a&gt;    --&gt; Discurssion Forum.","torrent":{"xt":"urn:btih:6ad9b22679e8b7e6484e56fc81d803a5ac696cad","amp;dn":"Game+Time%5B2011%5D%5BENG%5D%5BDvDRip%5DXvid-%7BRedDragon%7D","amp;tr":["udp%3A%2F%2Ftracker.openbittorrent.com%3A80","udp%3A%2F%2Fopen.demonii.com%3A1337","udp%3A%2F%2Ftracker.coppersurfer.tk%3A6969","udp%3A%2F%2Fexodus.desync.com%3A6969"],"infoHash":"6ad9b22679e8b7e6484e56fc81d803a5ac696cad","infoHashBuffer":{"type":"Buffer","data":[106,217,178,38,121,232,183,230,72,78,86,252,129,216,3,165,172,105,108,173]},"announce":[],"urlList":[]}}